<svg width="40" height="40" viewBox="0 0 40 40" fill="none" xmlns="http://www.w3.org/2000/svg">
<path d="M34.1633 39.9927H5.83648C1.50335 39.9927 -1.31493 35.4326 0.622885 31.557L14.7862 3.23C16.9344 -1.06625 23.0653 -1.06625 25.2134 3.23L39.3768 31.5569C41.3148 35.4326 38.4965 39.9927 34.1633 39.9927Z" fill="url(#paint0_linear)"/>
<path d="M34.1633 39.9927H5.83648C1.50335 39.9927 -1.31493 35.4326 0.622885 31.557L14.7862 3.23C16.9344 -1.06625 23.0653 -1.06625 25.2134 3.23L39.3768 31.5569C41.3148 35.4326 38.4965 39.9927 34.1633 39.9927Z" fill="#F25849"/>
<path d="M34.1618 38.9921H31.9313L19.038 26.0988C18.6568 25.9122 18.4654 25.5898 18.4654 25.1295C18.4654 23.3898 18.394 22.1491 18.2512 18.2118C18.1085 14.2753 18.0371 14.4667 18.0371 12.7271C18.0371 12.1718 18.2261 11.7436 18.6041 11.4416C18.9814 11.1389 19.4708 10.9883 20.0716 10.9883C20.6723 10.9883 21.1139 11.1452 21.3947 11.4597C21.4488 11.5193 33.2025 22.2691 37.2597 26.3247L39.3758 30.5568C41.3139 34.4321 38.4952 38.9921 34.1618 38.9921Z" fill="url(#paint1_linear)"/>
<path d="M31.0131 38.9917H25.1795L18.4916 32.3039C18.047 31.9117 17.8242 31.4545 17.8242 30.9313C17.8242 30.3862 18.047 29.9227 18.4916 29.5415C18.9363 29.1604 19.4767 28.9697 20.112 28.9697C20.6712 28.9697 21.1552 29.1604 21.563 29.5415L31.0131 38.9917Z" fill="url(#paint2_linear)"/>
<path d="M17.8242 30.9306C17.8242 30.3855 18.0466 29.9225 18.4912 29.5414C18.9359 29.1602 19.4763 28.9691 20.1116 28.9691C20.671 28.9691 21.1546 29.1602 21.5624 29.5414C21.9703 29.9225 22.1749 30.3855 22.1749 30.9306C22.1749 31.4537 21.9705 31.9113 21.5624 32.3035C21.1546 32.6958 20.6709 32.8919 20.1116 32.8919C19.4763 32.8919 18.9359 32.6957 18.4912 32.3035C18.0466 31.9113 17.8242 31.4538 17.8242 30.9306ZM18.0382 12.7264C18.0382 12.1713 18.227 11.7425 18.6049 11.4405C18.9827 11.1385 19.4719 10.9873 20.0726 10.9873C20.6733 10.9873 21.1146 11.1446 21.396 11.4588C21.6774 11.773 21.8184 12.1954 21.8184 12.7264C21.8184 14.4661 21.7882 14.2743 21.7292 18.2114C21.6696 22.1486 21.6402 23.3893 21.6402 25.1283C21.6402 25.4912 21.4702 25.7753 21.1309 25.9803C20.7909 26.1854 20.4382 26.288 20.0727 26.288C19.0018 26.288 18.4663 25.9018 18.4663 25.1283C18.4663 23.3893 18.3948 22.1486 18.2523 18.2114C18.1095 14.2742 18.0382 14.4661 18.0382 12.7264Z" fill="white"/>
<defs>
<linearGradient id="paint0_linear" x1="10.0321" y1="17.1094" x2="55.6609" y2="62.7382" gradientUnits="userSpaceOnUse">
<stop stop-color="#FFB92D"/>
<stop offset="1" stop-color="#F59500"/>
</linearGradient>
<linearGradient id="paint1_linear" x1="33.0583" y1="31.1641" x2="10.7772" y2="8.883" gradientUnits="userSpaceOnUse">
<stop stop-color="#A6373C" stop-opacity="0"/>
<stop offset="1" stop-color="#BE3F45"/>
</linearGradient>
<linearGradient id="paint2_linear" x1="25.8449" y1="36.7445" x2="18.5768" y2="29.4756" gradientUnits="userSpaceOnUse">
<stop stop-color="#BE3F45" stop-opacity="0"/>
<stop offset="1" stop-color="#BE3F45"/>
</linearGradient>
</defs>
</svg>
