<svg width="199" height="102" viewBox="0 0 199 102" fill="none" xmlns="http://www.w3.org/2000/svg">
<path d="M1 104.739C5.5 104.906 16 104.539 22 101.739C29.5 98.2393 45.5 91.5 40.5 73.5C38.5 67 32 65 29 66C26 67 24.562 75.2447 27.5 80.5C31 86.7607 47.5 101.239 63.5 93.2393C79.5 85.2393 72 66.2394 57 47.2394C42 28.2394 44.5 12.2393 52 7.73934C59.5 3.23934 75.5 -0.760655 95.5 18.2393C105 28.2393 110 48.2393 111 56.2393C112 64.2393 116.872 83.7393 132.5 83.7393C147.5 83.7393 147.5 69.2393 149 50.2393C150.167 41.4059 149.6 36.1392 138 29.7393C132.5 26.7393 126.5 29.2394 126.5 32.2393C126.5 35.2393 127 39.2393 134.5 42.2393C140.287 44.5541 148.753 43.5943 157.372 32.2393" stroke="white" stroke-dasharray="4 4"/>
<path d="M166 21L160 29L172 23.5L166 21Z" fill="#5C5F66"/>
<path d="M199 0L141.5 12.5L155 18L160 28L166 21L180 30L199 0Z" fill="white"/>
<path d="M189.5 5L155 18L160 29L166 21L189.5 5Z" fill="#85888C"/>
</svg>
