<svg width="40" height="40" viewBox="0 0 40 40" fill="none" xmlns="http://www.w3.org/2000/svg">
<g clip-path="url(#clip0)">
<path d="M17.7146 25.617C18.2779 27.0534 18.0366 29.0318 16.878 30.191L12.8992 34.1699C12.15 34.9185 11.1461 35.3311 10.0715 35.3311C8.99699 35.3311 7.99245 34.9185 7.24323 34.1699L5.82947 32.7561C5.08025 32.0061 4.66759 31.0023 4.66759 29.9271C4.66759 28.8518 5.08017 27.848 5.82947 27.0988L9.80761 23.1199C10.5568 22.3713 11.5614 21.9587 12.6359 21.9587C13.1465 21.9587 14.207 22.4873 14.6663 22.666L17.6193 19.713C14.517 17.6626 9.70566 17.5666 6.98002 20.2923L3.00118 24.2711C-0.109769 27.382 -0.109769 32.4727 3.00118 35.5829L4.41564 36.9975C7.52659 40.1084 12.6166 40.1084 15.7275 36.9975L19.7063 33.0186C22.4313 30.293 22.7159 25.7682 20.6655 22.6659L17.7146 25.617Z" fill="#7383BF"/>
<path d="M36.9955 4.41599L35.5817 3.00216C32.4708 -0.108792 27.3801 -0.108792 24.2692 3.00216L20.2903 6.981C17.5647 9.70664 17.6606 14.5181 19.7111 17.6203L22.6641 14.6673C22.4861 14.208 21.9568 13.1475 21.9568 12.6369C21.9568 11.5623 22.3694 10.5578 23.1187 9.80859L27.0968 5.82975C27.8461 5.08115 28.8506 4.66857 29.9251 4.66857C30.9997 4.66857 32.0042 5.08115 32.7534 5.82975L34.1679 7.24421C35.727 8.80335 35.727 11.341 34.1679 12.9002L30.189 16.879C29.4398 17.6276 28.4353 18.0402 27.3607 18.0402C26.8501 18.0402 25.7896 17.5116 25.3303 17.3329L22.3774 20.2859C25.4796 22.3363 30.291 22.4316 33.0166 19.7067L36.9955 15.7278C40.1065 12.6176 40.1065 7.52686 36.9955 4.41599Z" fill="#7383BF"/>
<path d="M27.9975 15.6678L15.6658 27.9995C14.6533 29.012 13.0121 29.012 11.9996 27.9995C10.9871 26.987 10.9871 25.3458 11.9996 24.3333L24.3314 12.0016C25.3439 10.9891 26.9851 10.9891 27.9976 12.0016C29.0101 13.0141 29.0101 14.6552 27.9975 15.6678Z" fill="#556080"/>
<path d="M31.329 31.9976C31.1584 31.9976 30.9878 31.9323 30.8578 31.8023L27.1916 28.1361C26.9309 27.8755 26.9309 27.4542 27.1916 27.1935C27.4516 26.9329 27.8741 26.9329 28.1341 27.1935L31.8003 30.8597C32.061 31.1203 32.061 31.5416 31.8003 31.8023C31.6703 31.9323 31.4996 31.9976 31.329 31.9976Z" fill="#7383BF"/>
<path d="M31.3284 25.3322H29.3287C28.9607 25.3322 28.6621 25.0342 28.6621 24.6656C28.6621 24.297 28.9607 23.999 29.3287 23.999H31.3284C31.6964 23.999 31.995 24.297 31.995 24.6656C31.995 25.0342 31.6964 25.3322 31.3284 25.3322Z" fill="#7383BF"/>
<path d="M24.6646 31.9979C24.2966 31.9979 23.998 31.6999 23.998 31.3313V29.3316C23.998 28.963 24.2966 28.665 24.6646 28.665C25.0326 28.665 25.3312 28.963 25.3312 29.3316V31.3314C25.3312 31.7 25.0326 31.9979 24.6646 31.9979Z" fill="#7383BF"/>
<path d="M12.3329 13.0005C12.1623 13.0005 11.9917 12.9352 11.8617 12.8052L8.19547 9.13903C7.93484 8.8784 7.93484 8.45715 8.19547 8.19645C8.45547 7.93582 8.87805 7.93582 9.13805 8.19645L12.8042 11.8626C13.0649 12.1233 13.0649 12.5445 12.8042 12.8052C12.6742 12.9352 12.5035 13.0005 12.3329 13.0005Z" fill="#7383BF"/>
<path d="M10.6644 16.0001H8.66461C8.29664 16.0001 7.99805 15.7022 7.99805 15.3336C7.99805 14.965 8.29664 14.667 8.66461 14.667H10.6644C11.0324 14.667 11.3309 14.965 11.3309 15.3336C11.3309 15.7022 11.0324 16.0001 10.6644 16.0001Z" fill="#7383BF"/>
<path d="M15.3306 11.3339C14.9627 11.3339 14.6641 11.0359 14.6641 10.6673V8.66754C14.6641 8.29895 14.9627 8.00098 15.3306 8.00098C15.6986 8.00098 15.9972 8.29895 15.9972 8.66754V10.6673C15.9972 11.036 15.6985 11.3339 15.3306 11.3339Z" fill="#7383BF"/>
</g>
<defs>
<clipPath id="clip0">
<rect width="40" height="40" fill="white"/>
</clipPath>
</defs>
</svg>
