<svg viewBox="0 0 17 11" fill="none" xmlns="http://www.w3.org/2000/svg">
<path d="M8.06667 3.3C7.48319 3.3 6.92361 3.53178 6.51103 3.94436C6.09845 4.35695 5.86667 4.91652 5.86667 5.5C5.86667 6.08348 6.09845 6.64306 6.51103 7.05564C6.92361 7.46822 7.48319 7.7 8.06667 7.7C8.65014 7.7 9.20972 7.46822 9.6223 7.05564C10.0349 6.64306 10.2667 6.08348 10.2667 5.5C10.2667 4.91652 10.0349 4.35695 9.6223 3.94436C9.20972 3.53178 8.65014 3.3 8.06667 3.3ZM8.06667 9.16667C7.09421 9.16667 6.16158 8.78036 5.47394 8.09272C4.78631 7.40509 4.4 6.47246 4.4 5.5C4.4 4.52754 4.78631 3.59491 5.47394 2.90728C6.16158 2.21964 7.09421 1.83333 8.06667 1.83333C9.03913 1.83333 9.97176 2.21964 10.6594 2.90728C11.347 3.59491 11.7333 4.52754 11.7333 5.5C11.7333 6.47246 11.347 7.40509 10.6594 8.09272C9.97176 8.78036 9.03913 9.16667 8.06667 9.16667ZM8.06667 0C4.4 0 1.26867 2.28067 0 5.5C1.26867 8.71933 4.4 11 8.06667 11C11.7333 11 14.8647 8.71933 16.1333 5.5C14.8647 2.28067 11.7333 0 8.06667 0Z" fill="#919294"/>
</svg>
