<svg width="24" height="24" viewBox="0 0 24 24" fill="none" xmlns="http://www.w3.org/2000/svg">
<path fill-rule="evenodd" clip-rule="evenodd" d="M10.2845 7.58962C10.2845 7.92659 10.2845 9.4306 10.2845 9.4306H9V11.6818H10.2845L10.2945 18H12.9332L12.9232 11.682H14.6939C14.6939 11.682 14.8597 10.6025 14.9401 9.4223C14.7096 9.4223 12.9332 9.4223 12.9332 9.4223C12.9332 9.4223 12.9332 8.11265 12.9332 7.88309C12.9332 7.65304 13.2209 7.34359 13.5052 7.34359C13.789 7.34359 14.388 7.34359 14.9429 7.34359C14.9429 7.03709 14.9429 5.97807 14.9429 5C14.2022 5 13.3596 5 12.9881 5C10.2193 4.99984 10.2845 7.25325 10.2845 7.58962Z" fill="white"/>
</svg>
