<svg viewBox="0 0 12 12" fill="none" xmlns="http://www.w3.org/2000/svg">
<path fill-rule="evenodd" clip-rule="evenodd" d="M11 6C11 8.76142 8.76142 11 6 11C3.23858 11 1 8.76142 1 6C1 3.23858 3.23858 1 6 1C8.76142 1 11 3.23858 11 6ZM12 6C12 9.31371 9.31371 12 6 12C2.68629 12 0 9.31371 0 6C0 2.68629 2.68629 0 6 0C9.31371 0 12 2.68629 12 6ZM5.49609 6.38281C5.40755 6.59896 5.36328 6.88932 5.36328 7.25391H6.36328L6.37891 7.01562C6.40755 6.76042 6.52083 6.53776 6.71875 6.34766L7.03516 6.04688C7.28255 5.80729 7.45573 5.58984 7.55469 5.39453C7.65365 5.19661 7.70312 4.98698 7.70312 4.76562C7.70312 4.27865 7.55078 3.90234 7.24609 3.63672C6.94141 3.36849 6.51302 3.23438 5.96094 3.23438C5.41406 3.23438 4.98177 3.375 4.66406 3.65625C4.34896 3.9375 4.1888 4.32682 4.18359 4.82422H5.31641C5.32161 4.61589 5.38151 4.45312 5.49609 4.33594C5.61328 4.21615 5.76823 4.15625 5.96094 4.15625C6.36719 4.15625 6.57031 4.3763 6.57031 4.81641C6.57031 4.96224 6.53125 5.10156 6.45312 5.23438C6.375 5.36458 6.21745 5.53516 5.98047 5.74609C5.74609 5.95443 5.58464 6.16667 5.49609 6.38281ZM5.42578 8.02344C5.30859 8.13542 5.25 8.27865 5.25 8.45312C5.25 8.625 5.30729 8.76693 5.42188 8.87891C5.53906 8.99089 5.69271 9.04688 5.88281 9.04688C6.07292 9.04688 6.22526 8.99089 6.33984 8.87891C6.45703 8.76693 6.51562 8.625 6.51562 8.45312C6.51562 8.27865 6.45573 8.13542 6.33594 8.02344C6.21875 7.90885 6.06771 7.85156 5.88281 7.85156C5.69792 7.85156 5.54557 7.90885 5.42578 8.02344Z"/>
</svg>
