<svg width="24" height="24" viewBox="0 0 24 24" fill="none" xmlns="http://www.w3.org/2000/svg">
<path fill-rule="evenodd" clip-rule="evenodd" d="M19.1429 7.30213C18.6224 7.52299 18.0633 7.67227 17.4764 7.7394C18.0754 7.39572 18.5355 6.85152 18.7522 6.20303C18.1914 6.5213 17.5705 6.75239 16.9096 6.8769C16.3803 6.3372 15.6262 6 14.7916 6C13.1892 6 11.8901 7.24329 11.8901 8.77687C11.8901 8.99452 11.9158 9.20647 11.9652 9.40974C9.55377 9.29389 7.41574 8.18837 5.98467 6.50824C5.7349 6.91838 5.59179 7.3954 5.59179 7.90433C5.59179 8.86779 6.10402 9.71778 6.8826 10.2158C6.40696 10.2013 5.95956 10.0764 5.56839 9.86841C5.56812 9.87999 5.56812 9.89162 5.56812 9.90334C5.56812 11.2488 6.56831 12.3711 7.89563 12.6263C7.6522 12.6897 7.39583 12.7238 7.1312 12.7238C6.94422 12.7238 6.76247 12.7063 6.58527 12.6739C6.95453 13.7771 8.02607 14.58 9.29577 14.6024C8.30274 15.3473 7.05162 15.7912 5.69217 15.7912C5.45796 15.7912 5.227 15.778 5 15.7523C6.28407 16.5403 7.80926 17 9.44784 17C14.7849 17 17.7034 12.7685 17.7034 9.09884C17.7034 8.97845 17.7005 8.85869 17.695 8.73957C18.2619 8.34807 18.7539 7.85899 19.1429 7.30213Z" fill="white"/>
</svg>
